<?xml version="1.0" standalone="no"?>
<!DOCTYPE svg PUBLIC "-//W3C//DTD SVG 20010904//EN"
 "http://www.w3.org/TR/2001/REC-SVG-20010904/DTD/svg10.dtd">
<svg version="1.0" xmlns="http://www.w3.org/2000/svg"
 width="501.000000pt" height="501.000000pt" viewBox="0 0 501.000000 501.000000"
 preserveAspectRatio="xMidYMid meet">
<metadata>
Created by potrace 1.14, written by Peter Selinger 2001-2017
</metadata>
<g transform="translate(0.000000,501.000000) scale(0.100000,-0.100000)"
fill="#000000" stroke="none">
<path d="M2272 4986 c-5 -6 -17 -38 -27 -71 -27 -90 -56 -167 -62 -162 -2 3
-35 -3 -71 -14 -37 -10 -74 -19 -82 -19 -8 0 -51 34 -95 75 -44 41 -88 74 -98
75 -13 0 -226 -116 -244 -134 -2 -2 21 -109 28 -128 0 -2 2 -14 4 -28 2 -14 6
-38 9 -55 6 -27 0 -37 -52 -89 -32 -33 -66 -60 -75 -62 -9 -1 -45 4 -79 13
-35 8 -72 16 -83 18 -11 1 -31 6 -45 9 -24 7 -29 1 -72 -76 -26 -46 -59 -102
-73 -125 l-26 -43 48 -52 c26 -29 63 -68 80 -88 38 -41 39 -45 13 -130 -11
-36 -20 -66 -20 -67 0 -2 0 -7 0 -11 0 -5 -48 -23 -107 -42 -60 -18 -113 -40
-120 -48 -17 -20 -17 -266 0 -279 6 -5 59 -24 117 -43 58 -18 106 -34 107 -35
4 -3 43 -157 43 -170 0 -12 -10 -24 -101 -123 -53 -57 -59 -77 -31 -113 10
-13 37 -58 60 -99 61 -110 52 -102 108 -90 27 7 56 13 64 15 8 2 35 8 60 14
25 6 50 11 56 11 12 0 134 -119 134 -131 0 -4 -9 -51 -21 -105 -11 -55 -22
-106 -23 -114 -3 -13 71 -70 90 -70 3 0 18 -8 32 -19 15 -10 48 -30 74 -44
l46 -26 59 51 c32 28 71 64 86 80 24 27 33 30 65 24 66 -10 132 -32 145 -47 8
-7 28 -60 46 -117 18 -56 36 -103 39 -103 37 -8 275 -2 280 6 15 22 41 108 36
116 -3 5 0 9 7 9 7 0 10 2 7 6 -8 8 26 99 37 100 26 1 126 28 130 35 9 14 47
-4 85 -40 80 -77 121 -111 134 -111 7 0 65 30 128 67 128 73 122 63 96 158 -5
22 -12 49 -13 60 -2 11 -6 36 -9 56 -6 34 -4 40 44 85 27 26 50 50 50 53 0 12
-456 7 -471 -5 -22 -18 -137 -60 -208 -76 -85 -20 -296 -21 -384 -2 -38 8 -99
26 -135 41 -75 29 -208 107 -233 135 -9 10 -19 18 -23 18 -14 0 -119 117 -157
175 -21 33 -42 65 -47 70 -24 32 -83 191 -97 265 -20 106 -20 264 1 350 3 14
7 33 8 42 1 10 5 21 9 24 4 4 7 16 7 26 0 11 16 53 35 94 73 159 180 288 315
381 92 63 243 126 330 139 19 3 46 7 60 10 49 9 239 2 295 -10 77 -18 141 -39
147 -49 4 -7 8 -9 8 -5 0 4 24 -4 53 -17 50 -23 61 -24 275 -23 122 1 222 2
222 4 0 1 -25 26 -55 56 l-55 55 16 74 c8 41 17 83 20 94 15 75 16 72 -46 107
-25 14 -62 35 -82 47 -21 11 -54 30 -72 41 l-35 19 -47 -42 c-26 -23 -66 -59
-88 -79 -23 -21 -45 -38 -51 -38 -5 0 -46 9 -91 21 l-81 21 -36 117 -37 118
-140 0 c-91 0 -143 -4 -148 -11z"/>
<path d="M2661 4401 c-17 -17 -38 -19 -178 -22 -87 -2 -183 -9 -213 -16 -30
-7 -65 -15 -77 -17 -29 -6 -202 -90 -228 -111 -18 -14 -20 -29 -21 -138 -1
-106 2 -124 18 -140 25 -25 23 -72 -4 -91 -30 -21 -50 -20 -76 4 -28 26 -28
61 -2 85 19 17 21 30 19 124 l-1 105 -60 -64 c-84 -92 -151 -214 -172 -312
l-6 -28 215 0 c176 1 217 3 221 15 8 20 62 29 81 14 33 -28 33 -79 -1 -101
-20 -13 -59 -8 -79 10 -17 15 -44 17 -233 18 -118 0 -216 -2 -218 -5 -2 -3 -7
-34 -10 -68 -5 -47 -3 -63 6 -64 7 -1 58 -3 113 -4 55 -1 105 -3 110 -4 6 -1
10 -58 9 -153 -1 -135 1 -154 17 -172 54 -57 -20 -139 -79 -87 -28 23 -28 62
-2 86 19 17 21 30 19 147 0 78 -5 131 -12 135 -13 8 -165 6 -178 -3 -5 -3 -8
-8 -5 -12 2 -4 6 -30 10 -57 12 -105 96 -299 150 -350 29 -27 154 -29 180 -2
39 39 106 16 106 -35 0 -29 -9 -42 -37 -57 -23 -12 -73 0 -73 18 0 11 -77 19
-93 9 -6 -4 -15 -2 -19 5 -5 8 -8 8 -8 1 0 -34 182 -161 292 -203 34 -13 34
-14 33 189 l0 165 -87 3 c-49 1 -88 6 -89 10 0 4 -1 75 -2 158 -2 129 -5 153
-19 168 -53 53 27 136 81 85 26 -24 27 -61 4 -85 -15 -15 -18 -38 -19 -154
l-1 -136 84 1 c46 1 87 -3 90 -8 3 -5 5 -100 4 -212 l-1 -202 27 -12 c18 -8
94 -15 207 -17 159 -4 183 -7 207 -25 26 -19 30 -19 59 -4 37 19 39 47 5 81
-22 21 -27 23 -47 12 -12 -7 -27 -18 -33 -25 -7 -8 -44 -11 -115 -9 -58 2
-109 4 -113 5 -4 0 -7 20 -6 44 1 23 1 72 0 109 -1 63 -2 67 -22 63 -12 -3
-29 -11 -38 -19 -30 -28 -69 -27 -91 1 -25 33 -25 55 0 78 28 25 50 27 80 7
14 -9 36 -19 50 -22 14 -3 25 -10 25 -17 0 -6 3 -14 7 -18 7 -7 299 -7 306 0
2 2 4 33 5 69 1 50 5 67 16 71 9 2 146 4 305 3 261 -2 290 -4 311 -20 30 -23
50 -23 75 2 22 22 19 59 -7 78 -24 17 -44 15 -69 -9 -23 -21 -30 -22 -344 -21
-245 1 -320 -2 -319 -11 1 -7 1 -40 0 -75 l-1 -63 -142 3 -143 3 -2 128 c-3
145 -16 128 101 129 33 0 64 2 70 4 6 2 10 28 9 59 -1 40 4 61 18 79 34 43 15
96 -35 96 -50 0 -71 -67 -31 -97 15 -10 19 -23 16 -56 -1 -23 -4 -44 -6 -46
-3 -2 -31 -4 -64 -5 -47 -1 -63 -5 -74 -20 -12 -16 -27 -20 -92 -20 -53 -1
-80 -5 -83 -14 -2 -7 -7 -10 -12 -7 -4 3 -13 -2 -20 -10 -20 -24 -92 16 -86
49 7 35 19 55 39 60 35 9 45 7 64 -13 15 -15 33 -18 103 -18 l85 0 -2 221 c-1
121 -2 225 -2 229 -1 5 -20 7 -43 5 l-42 -3 0 -131 c0 -121 2 -133 22 -154 27
-30 28 -50 2 -78 -35 -38 -81 -28 -100 22 -10 28 -3 48 25 68 5 4 9 73 9 162
0 97 4 157 11 159 5 3 32 3 58 2 26 -1 50 2 52 5 4 7 8 154 6 221 l-1 35 -112
0 -113 -1 -1 -75 c0 -64 3 -79 22 -103 36 -43 6 -99 -49 -93 -55 7 -71 63 -30
108 12 13 16 42 17 113 l1 96 130 1 c123 1 131 0 140 -21 8 -18 18 -21 62 -21
l53 0 0 -80 c0 -57 4 -80 13 -81 6 0 97 -1 202 -1 145 -1 192 -4 200 -14 19
-25 62 -27 84 -5 26 26 26 42 2 69 -23 27 -55 28 -78 3 -21 -22 -35 -23 -239
-22 l-151 1 2 75 c1 41 -1 78 -4 83 -3 4 -37 7 -76 7 l-70 0 -3 68 c-2 37 1
68 5 68 47 8 218 2 227 -7 25 -25 51 -33 71 -22 40 22 46 57 15 88 -25 25 -45
25 -69 1z"/>
<path d="M3679 4339 c-14 -14 -45 -16 -237 -15 -140 1 -223 -3 -225 -9 -2 -5
-3 -40 -2 -78 1 -37 -2 -70 -6 -73 -5 -3 -93 -5 -195 -4 -170 0 -188 2 -213
21 -22 16 -32 18 -53 10 -43 -16 -45 -73 -4 -103 11 -8 58 9 68 25 4 7 71 11
215 11 131 0 211 4 215 11 4 5 8 42 8 82 l0 72 69 0 c37 0 72 1 77 2 5 1 14 0
19 -1 20 -4 137 0 146 6 5 3 9 2 9 -3 0 -4 19 -7 42 -6 28 1 50 -6 70 -20 23
-17 33 -19 56 -11 22 8 28 16 30 46 2 28 -1 39 -16 47 -26 14 -54 10 -73 -10z"/>
<path d="M3130 3918 c-26 -28 -25 -50 1 -74 24 -22 57 -20 80 5 14 14 38 17
182 16 135 0 169 -3 184 -16 31 -27 50 -29 72 -5 26 27 27 49 4 76 -22 25 -41
25 -73 0 -22 -18 -42 -20 -188 -20 -149 0 -166 2 -189 20 -33 26 -47 25 -73
-2z"/>
<path d="M2419 3888 c-6 -10 -4 -17 4 -20 6 -3 97 -4 200 -4 103 1 192 -1 197
-4 5 -3 10 -43 12 -89 l3 -84 508 0 c279 0 507 -3 507 -7 0 -16 50 -29 75 -20
49 19 28 100 -25 100 -9 0 -25 -9 -37 -19 -25 -24 -5 -23 -550 -22 l-452 1 2
80 c2 45 0 85 -3 90 -3 5 -102 11 -219 12 -190 3 -214 1 -222 -14z"/>
<path d="M2529 3749 c-37 -37 -25 -66 42 -96 4 -1 17 8 30 20 17 17 35 23 64
23 l40 -1 3 -122 c2 -88 6 -123 15 -124 7 0 107 0 222 0 194 -1 211 -2 228
-20 23 -25 59 -24 82 1 23 25 13 67 -20 82 -19 9 -30 7 -58 -11 -32 -19 -47
-21 -234 -20 l-201 1 0 102 c-1 55 -1 110 -2 122 0 18 -7 21 -57 23 -36 1 -62
7 -69 16 -18 24 -63 26 -85 4z"/>
<path d="M3454 3510 c-30 -12 -37 -57 -13 -81 24 -24 54 -24 77 -1 16 16 37
18 182 17 146 0 168 -2 193 -19 40 -27 81 -13 85 29 1 17 -2 36 -7 44 -13 20
-69 18 -84 -3 -12 -16 -31 -18 -181 -17 -152 1 -170 3 -193 21 -28 22 -29 22
-59 10z"/>
<path d="M2847 3067 c-25 -20 -28 -56 -6 -78 22 -22 65 -21 79 1 7 12 43 15
177 15 147 1 171 -1 192 -17 31 -24 56 -23 79 3 23 24 18 54 -12 74 -24 16
-62 10 -70 -11 -8 -22 -342 -20 -366 1 -23 21 -55 26 -73 12z"/>
<path d="M4276 2998 c11 -129 2 -294 -21 -408 -2 -14 -7 -38 -10 -55 -4 -24
-35 -143 -49 -190 -8 -27 -21 -57 -59 -135 -41 -82 -42 -88 -41 -180 1 -119
24 -175 109 -262 81 -83 168 -119 250 -104 90 17 436 339 500 465 35 70 17
240 -37 344 -5 10 -11 26 -13 35 -1 9 -19 51 -38 92 -19 41 -47 102 -62 135
-43 96 -106 197 -142 231 -66 63 -156 93 -326 109 l-68 7 7 -84z"/>
<path d="M517 3045 c-63 -17 -137 -53 -137 -65 0 -6 -5 -10 -11 -10 -25 0 -75
-77 -153 -235 -72 -147 -93 -190 -101 -215 -1 -3 -6 -16 -12 -30 -47 -114 -55
-149 -57 -230 -2 -122 14 -150 183 -325 68 -69 138 -134 196 -177 17 -12 36
-28 43 -36 81 -77 227 -52 338 57 46 45 90 123 97 171 7 46 -43 200 -65 200
-4 0 -8 9 -8 20 0 11 -4 20 -9 20 -10 0 -90 181 -96 215 0 6 -4 17 -7 25 -8
20 -20 69 -24 100 -1 14 -5 36 -8 50 -13 60 -17 82 -30 195 -12 95 -17 150
-20 200 -5 89 -3 85 -38 84 -18 0 -55 -7 -81 -14z"/>
<path d="M1756 2092 c-5 -4 -28 -8 -83 -14 -7 -1 -13 -5 -13 -10 0 -5 -5 -6
-10 -3 -6 4 -16 2 -23 -3 -7 -5 -23 -13 -37 -17 -41 -12 -176 -82 -284 -147
-56 -34 -117 -70 -136 -80 -19 -11 -44 -25 -55 -31 -145 -86 -198 -117 -206
-117 -5 0 -9 -4 -9 -10 0 -5 -5 -10 -12 -10 -11 0 -109 -58 -118 -71 -3 -4
-28 -14 -57 -22 -57 -17 -139 -15 -175 4 -13 7 -24 12 -26 10 -14 -10 -176
104 -238 167 -45 47 -45 47 -41 17 12 -77 63 -243 108 -350 6 -16 13 -34 15
-40 1 -5 10 -28 20 -50 10 -22 18 -42 19 -45 4 -12 17 -47 28 -70 6 -14 11
-27 12 -30 1 -3 6 -16 13 -30 19 -44 51 -120 53 -128 4 -19 89 -119 104 -122
3 0 34 -15 70 -31 78 -37 152 -58 225 -65 30 -3 60 -7 66 -9 6 -2 23 -41 38
-87 28 -82 80 -186 100 -200 6 -4 7 -8 2 -8 -22 0 73 -72 109 -81 31 -9 204
-14 242 -8 38 6 52 -4 72 -53 12 -29 26 -61 31 -70 6 -10 10 -23 10 -29 0 -33
120 -115 194 -133 57 -14 213 -7 271 11 11 4 27 7 35 8 33 4 80 17 80 23 0 16
-25 72 -33 72 -4 0 -6 4 -3 9 3 5 -1 27 -9 50 -12 34 -25 109 -27 156 -1 26
23 115 31 115 3 0 12 14 19 30 8 17 18 28 23 24 5 -3 9 -1 9 5 0 5 20 24 45
41 l45 31 -49 79 c-27 43 -47 81 -43 84 3 3 -2 6 -11 6 -8 0 -22 -7 -31 -15
-8 -8 -19 -15 -24 -15 -6 0 -12 -4 -14 -8 -1 -5 -32 -28 -68 -53 -36 -24 -67
-46 -70 -49 -9 -9 -115 -78 -149 -96 -18 -11 -41 -24 -50 -29 -69 -45 -86 -53
-94 -48 -4 3 11 24 35 47 73 68 171 158 232 211 32 28 85 75 119 106 l61 57
-13 53 c-8 30 -13 75 -12 101 1 48 31 130 50 143 6 3 9 11 6 16 -4 5 -1 9 4 9
6 0 11 6 11 13 0 7 14 23 31 37 79 65 74 53 75 163 0 113 10 185 27 206 7 8
11 17 9 20 -3 9 57 99 76 113 9 7 23 21 30 30 12 15 10 16 -20 12 -37 -6 -118
-58 -178 -114 -22 -21 -40 -35 -40 -33 0 3 -6 0 -14 -6 -19 -16 -24 -4 -27 55
-5 97 -85 216 -180 265 -44 23 -164 51 -173 41z m324 -424 c0 -6 -33 -41 -72
-79 -99 -93 -106 -99 -163 -144 -27 -22 -51 -43 -53 -47 -2 -5 -8 -8 -13 -8
-6 0 -21 -11 -35 -25 -14 -14 -28 -25 -32 -25 -4 0 -23 -14 -42 -30 -19 -17
-43 -33 -52 -36 -10 -3 -18 -10 -18 -15 0 -5 -4 -9 -10 -9 -9 0 -72 -39 -97
-60 -7 -6 -13 -7 -13 -3 0 4 -4 3 -8 -2 -8 -12 -51 -41 -173 -116 -47 -30 -94
-60 -105 -67 -42 -27 -84 -45 -91 -39 -4 4 2 14 13 21 10 8 29 22 42 32 12 11
34 28 48 39 14 11 40 32 57 47 18 15 35 28 38 28 3 0 15 8 26 18 11 9 35 28
53 42 18 14 48 36 66 50 17 14 44 34 59 45 84 61 216 159 257 190 25 19 51 35
56 35 5 0 13 7 16 16 4 9 9 14 12 11 3 -3 14 2 24 11 26 24 148 112 155 112 4
0 13 7 22 15 15 16 33 12 33 -7z"/>
<path d="M3184 2071 c-59 -20 -104 -50 -159 -105 -54 -55 -73 -99 -71 -169 0
-34 -4 -59 -10 -61 -10 -4 -72 27 -84 43 -3 3 -25 20 -50 36 -25 16 -47 32
-50 36 -14 15 -78 32 -125 32 -79 0 -176 -62 -224 -144 -48 -81 -55 -109 -55
-209 1 -64 5 -82 27 -117 14 -23 31 -44 36 -47 19 -12 1 -31 -29 -32 -61 -3
-129 -54 -190 -143 -32 -46 -34 -151 -5 -196 38 -59 154 -211 188 -245 19 -19
55 -62 82 -95 26 -33 53 -64 59 -70 24 -21 86 -104 86 -114 0 -6 4 -11 8 -11
5 0 9 -7 9 -15 0 -8 -3 -15 -5 -15 -5 0 -48 44 -123 126 -56 61 -72 73 -111
79 -87 14 -199 -84 -201 -174 -2 -119 80 -260 203 -353 49 -36 91 -45 242 -49
97 -2 133 9 181 52 17 16 42 32 56 37 31 11 40 10 191 -23 138 -30 261 -12
355 51 43 28 78 66 80 84 0 3 13 36 29 73 18 42 34 67 45 68 9 0 75 2 146 3
130 2 158 9 205 48 44 37 91 124 144 266 28 72 28 72 67 73 21 1 42 2 47 3 4
1 25 5 47 9 22 4 51 12 65 16 36 13 54 18 60 18 3 1 33 15 67 33 77 40 124 86
157 153 44 92 56 150 61 310 2 58 8 113 14 124 10 16 32 69 36 83 0 3 9 22 19
42 9 20 19 42 21 50 9 38 18 58 27 58 5 0 7 4 3 9 -3 5 0 15 7 23 20 20 22 49
3 42 -8 -3 -15 -10 -15 -14 0 -13 -209 -177 -247 -195 -51 -25 -161 -23 -215
3 -24 12 -54 31 -66 42 -12 12 -22 19 -22 17 0 -2 -21 16 -47 40 -52 48 -216
163 -233 163 -5 0 -10 3 -10 8 0 4 -14 14 -32 21 -18 8 -50 27 -73 41 -59 40
-224 127 -275 146 -143 52 -260 64 -346 35z m-48 -438 c44 -32 86 -63 94 -70
8 -7 67 -53 130 -103 133 -105 149 -119 249 -208 170 -153 277 -257 284 -276
7 -16 4 -16 -27 2 -19 11 -72 49 -118 84 -45 35 -114 88 -153 117 -38 29 -77
58 -85 64 -8 7 -56 43 -105 82 -84 65 -375 343 -375 358 0 18 35 2 106 -50z
m-501 -408 c33 -22 72 -48 86 -59 15 -12 39 -30 55 -41 33 -24 226 -183 304
-251 19 -17 48 -42 64 -55 16 -13 59 -53 97 -89 37 -36 91 -85 119 -110 100
-87 85 -110 -21 -33 -35 26 -67 52 -71 58 -4 5 -8 7 -8 3 0 -7 -25 11 -55 40
-8 6 -17 12 -20 12 -4 0 -20 10 -35 23 -15 12 -37 29 -50 37 -45 30 -166 125
-204 159 -58 54 -201 188 -275 259 -35 34 -68 62 -73 62 -5 0 -6 5 -3 10 3 6
0 10 -7 10 -10 0 -9 3 2 10 8 5 19 5 25 1 5 -4 37 -25 70 -46z"/>
</g>
</svg>
